<mxfile host="app.diagrams.net" modified="2023-07-04T00:27:53.960Z" agent="Mozilla/5.0 (Windows NT 10.0; Win64; x64; rv:109.0) Gecko/20100101 Firefox/114.0" version="21.5.2" etag="tW_9bjy0C0wh5qUq9lzn" type="github">
  <diagram name="PÃ¡gina-1" id="xvqLHZgjo0fQoiTh1QlW">
    <mxGraphModel>
      <root>
        <mxCell id="0" />
        <mxCell id="1" parent="0" />
      </root>
    </mxGraphModel>
  </diagram>
</mxfile>
